Coordinates
version=1
nRows=7
nColumns=63
inDegrees=yes

Units are S.I. units (second, meters, Newtons, ...)
If the header above contains a line with 'inDegrees', this indicates whether rotational values are in degrees (yes) or radians (no).

endheader
time	pelvis_tilt	pelvis_list	pelvis_rotation	pelvis_tx	pelvis_ty	pelvis_tz	hip_flexion_r	hip_adduction_r	hip_rotation_r	knee_angle_r	knee_angle_r_beta	ankle_angle_r	subtalar_angle_r	mtp_angle_r	hip_flexion_l	hip_adduction_l	hip_rotation_l	knee_angle_l	knee_angle_l_beta	ankle_angle_l	subtalar_angle_l	mtp_angle_l	L5_S1_Flex_Ext	L5_S1_Lat_Bending	L5_S1_axial_rotation	L4_L5_Flex_Ext	L4_L5_Lat_Bending	L4_L5_axial_rotation	L3_L4_Flex_Ext	L3_L4_Lat_Bending	L3_L4_axial_rotation	L2_L3_Flex_Ext	L2_L3_Lat_Bending	L2_L3_axial_rotation	L1_L2_Flex_Ext	L1_L2_Lat_Bending	L1_L2_axial_rotation	L1_T12_Flex_Ext	L1_T12_Lat_Bending	L1_T12_axial_rotation	Abs_r3	Abs_r2	Abs_r1	Abs_t1	Abs_t2	neck_flexion	neck_bending	neck_rotation	arm_flex_r	arm_add_r	arm_rot_r	elbow_flex_r	pro_sup_r	wrist_flex_r	wrist_dev_r	arm_flex_l	arm_add_l	arm_rot_l	elbow_flex_l	pro_sup_l	wrist_flex_l	wrist_dev_l
      4.16949153	     -4.97109362	     -6.23869302	     78.19956161	      0.28709472	      0.34996025	      0.97011821	      3.90230106	      2.50644430	      4.86196718	      4.74004161	      0.08272933	     22.10190690	    -14.19106841	      0.00000000	      9.35190194	     -2.59881524	      4.23365331	     13.29755129	      0.23208605	     32.45731152	      3.89142913	      0.00000000	     -0.16795590	      1.08438380	     -2.31969961	     -0.31191090	      1.44223045	     -2.46468084	     -0.27593475	      2.63657076	     -2.46468084	     -0.19195680	      2.63657076	     -2.02973716	     -0.15596385	      2.21127544	     -1.88475594	     -0.09597000	      1.67971050	     -1.73977471	     -1.19969221	     12.26676638	    -12.90147334	      0.00000000	      0.00000000	     14.98718055	     12.34721777	    -19.55225629	      2.07091941	    -14.82860552	     12.71434399	    129.40165582	     87.10122814	    -10.58014045	     17.66022428	     -8.35149781	    -20.68535563	     21.51278203	    122.79757876	     87.79581318	      5.96818265	      2.61378725
      4.18644068	     -4.95426454	     -6.28506353	     77.54954262	      0.28754714	      0.35018409	      0.97081959	      4.13444539	      2.57341605	      5.65829561	      4.79089131	      0.08361683	     22.23870773	    -14.43109673	      0.00000000	      9.31679189	     -2.80203566	      2.96282812	     13.15414416	      0.22958313	     32.73763056	      5.03431850	      0.00000000	     -0.17108826	      1.07765797	     -2.18296375	     -0.31772800	      1.43328510	     -2.31939899	     -0.28108090	      2.62021759	     -2.31939899	     -0.19553677	      2.62021759	     -1.91009329	     -0.15887256	      2.19756014	     -1.77365805	     -0.09775983	      1.66929220	     -1.63722282	     -1.22206632	     12.19068251	    -12.14098952	      0.00000000	      0.00000000	     14.41087466	     11.29631562	    -20.45855699	      2.59194841	    -15.45828972	     12.79295755	    129.22368707	     87.26285736	    -11.56467873	     17.29920685	     -9.14528017	    -20.36681632	     20.61244648	    122.70966084	     87.59369268	      8.48310898	      4.50586548
      4.20338983	     -4.83706421	     -6.28212042	     77.43944170	      0.28703691	      0.35042223	      0.97145027	      4.25332093	      2.65907967	      5.62671748	      4.82505902	      0.08421317	     22.49089256	    -14.21522028	      0.00000000	      9.26183343	     -2.85801719	      3.40849988	     13.05271261	      0.22781281	     32.57532327	      4.39241734	      0.00000000	     -0.17488717	      1.08804820	     -2.10275148	     -0.32478296	      1.44710411	     -2.23417345	     -0.28732213	      2.64548039	     -2.23417345	     -0.19987855	      2.64548039	     -1.83990755	     -0.16240023	      2.21874789	     -1.70848558	     -0.09993053	      1.68538666	     -1.57706361	     -1.24920157	     12.30821885	    -11.69487291	      0.00000000	      0.00000000	     13.86554214	     10.33847461	    -21.01754136	      3.21041599	    -16.37271122	     12.76083632	    129.06513257	     87.31019432	    -12.36181807	     16.78206269	     -9.36694023	    -20.16192779	     20.23469849	    122.27254487	     87.51617271	     10.16040388	      5.32269582
      4.22033898	     -4.67699920	     -6.30769023	     76.56615272	      0.28725473	      0.35046305	      0.97258955	      4.49980174	      2.85732747	      6.50189404	      5.03736875	      0.08791867	     22.55882619	    -14.19175141	      0.00000000	      9.19125739	     -3.26549089	      1.39369878	     13.11445137	      0.22889036	     32.73531766	      5.78030115	      0.00000000	     -0.18810072	      1.11241837	     -1.84741120	     -0.34932185	      1.47951644	     -1.96287440	     -0.30903067	      2.70473404	     -1.96287440	     -0.21498031	      2.70473404	     -1.61648480	     -0.17467033	      2.26844355	     -1.50102160	     -0.10748075	      1.72313606	     -1.38555840	     -1.34358464	     12.58389914	    -10.27474686	      0.00000000	      0.00000000	     13.60131557	      9.61840911	    -21.00617791	      3.82009331	    -17.61972927	     12.72372402	    129.08609241	     87.44819097	    -13.48664328	     16.05391866	     -8.75961394	    -20.25603573	     20.51457826	    121.51045451	     87.60385417	     10.52488662	      5.02912581
      4.23728814	     -4.43654988	     -6.36900012	     76.12095812	      0.28670130	      0.35046970	      0.97355513	      4.74128134	      3.08579699	      6.77997728	      5.30270102	      0.09254959	     22.53475628	    -13.89662200	      0.00000000	      9.21890004	     -3.58492405	      0.67107393	     13.25091885	      0.23127216	     32.64502449	      5.80455316	      0.00000000	     -0.19477568	      1.15524448	     -1.66114577	     -0.36171792	      1.53647516	     -1.76496738	     -0.31999697	      2.80886144	     -1.76496738	     -0.22260913	      2.80886144	     -1.45350255	     -0.18086870	      2.35577455	     -1.34968094	     -0.11129482	      1.78947370	     -1.24585933	     -1.39126321	     13.06835664	     -9.23879442	      0.00000000	      0.00000000	     13.60484997	      9.16872868	    -20.47838550	      4.31115242	    -19.10011230	     12.60591479	    129.35260758	     87.67974222	    -14.81886038	     15.21558477	     -7.42267408	    -20.63528075	     21.40730292	    120.56115953	     87.80334243	      9.50760086	      3.91408042
      4.25423729	     -4.18310292	     -6.37505642	     75.69746095	      0.28632373	      0.35051116	      0.97427614	      4.80016017	      3.35094710	      7.79920000	      5.43006825	      0.09477257	     21.93028845	    -14.71219958	      0.00000000	      9.18059079	     -3.96390356	     -0.54419523	     13.41564077	      0.23414710	     32.64143942	      6.37437498	      0.00000000	     -0.20904887	      1.19936868	     -1.50542953	     -0.38822466	      1.59516034	     -1.59951888	     -0.34344639	      2.91614500	     -1.59951888	     -0.23892196	      2.91614500	     -1.31725084	     -0.19412278	      2.44575261	     -1.22316150	     -0.11945053	      1.85782208	     -1.12907215	     -1.49321519	     13.56749835	     -8.37274744	      0.00000000	      0.00000000	     13.70449106	      8.90263437	    -19.44418610	      4.66107457	    -20.52721941	     12.37176039	    129.56283450	     87.86287927	    -15.73376757	     13.59353357	     -5.58393065	    -21.52853392	     23.04252840	    119.71057630	     87.92671073	      6.68124274	      2.59096351
      4.27118644	     -3.99494019	     -6.42249442	     75.30633412	      0.28603295	      0.35052557	      0.97480713	      4.90392874	      3.56862173	      8.69130287	      5.61265578	      0.09795932	     21.20796517	    -15.48834600	      0.00000000	      9.19149079	     -4.24456956	     -1.36768490	     13.57069565	      0.23685332	     32.51527180	      6.34313939	      0.00000000	     -0.21893245	      1.23517607	     -1.38880354	     -0.40657944	      1.64278418	     -1.47560376	     -0.35968411	      3.00320710	     -1.47560376	     -0.25021789	      3.00320710	     -1.21520309	     -0.20330067	      2.51877105	     -1.12840287	     -0.12509800	      1.91328774	     -1.04160265	     -1.56381256	     13.97255876	     -7.72410863	      0.00000000	      0.00000000	     13.94923991	      8.82746114	    -18.34244302	      4.88380190	    -21.72362801	     12.01052623	    129.86570747	     87.97070135	    -16.44626930	     12.19049595	     -3.47808915	    -22.79766036	     25.13498703	    119.04812482	     87.95367779	      3.67592970	      1.51105645
